<svg xmlns="http://www.w3.org/2000/svg" version="1.1" xmlns:xlink="http://www.w3.org/1999/xlink" xmlns:svgjs="http://svgjs.dev/svgjs" width="100%" height="100%" viewBox="0 0 1000 600"><rect width="1000" height="600" x="0" y="0" fill="#184c78"/><g><rect width="333.3333333333333" height="333.3333333333333" y="292.6028338320591" fill="#cc8d1a" transform="matrix(0.46231121445559276,0,0,0.46231121445559276,0,87.67455151953573)" x="270.38055419921875"/><path d="M495.840831639963 384.2695024785567L508.23752570232256 534.2695006331076L488.22140016748835 534.2695006331076L482.99059998995614 466.57145671695366Q479.7251293588955 426.72062068234413 479.30182761042477 405.404354062921L479.30182761042477 405.404354062921L446.8587721740545 517.276959015922L427.47759926192646 517.276959015922L393.3111009924964 405.16246734950903Q393.3111009924964 432.37472260834716 390.46893210990663 468.083248675778L390.46893210990663 468.083248675778L385.44978280660985 534.2695006331076L365.85695902024645 534.2695006331076L378.2838889217825 384.2695024785567L406.1310968033268 384.2695024785567L437.69731290357896 493.3301743881445L467.7517370450068 384.2695024785567L495.840831639963 384.2695024785567Z " fill="#184c78" transform="matrix(0.46231121445559276,0,0,0.46231121445559276,0,87.67455151953573)"/><path d="M687.0472363252352 384.26950244711054L707.3761440958799 384.26950244711054L707.3761440958799 513.9405910484597L767.9467786522745 513.9405910484597L765.5691286206202 531.7135250350761L687.0472363252352 531.7135250350761L687.0472363252352 384.26950244711054ZM868.5213749912535 505.3810509345042Q868.5213749912535 512.2465154009061 870.8693043975122 515.5455048198265Q873.2172338037709 518.8742148641426 877.9130926162883 520.598011137092L877.9130926162883 520.598011137092L873.4252781815406 534.2694988191046Q864.6576936898152 533.19955630486 859.3079811185929 529.3655956288175Q853.9582685473707 525.5019143273792 851.4022947633422 517.3881835943587L851.4022947633422 517.3881835943587Q840.0490158621927 534.2694988191046 817.7882674408288 534.2694988191046L817.7882674408288 534.2694988191046Q801.1149965938527 534.2694988191046 791.4855139656526 524.8777811940698Q781.8560313374525 515.4563429436395 781.8560313374525 500.2691033664473L781.8560313374525 500.2691033664473Q781.8560313374525 482.2881250020613 794.784503384573 472.65864237386114Q807.7426960570892 463.029159745661 831.489475748237 463.029159745661L831.489475748237 463.029159745661L848.8166003539181 463.029159745661L848.8166003539181 454.67766400947505Q848.8166003539181 442.7002519750163 843.0507990271564 437.55858378156375Q837.2552770749988 432.41691558811124 825.2778650405401 432.41691558811124L825.2778650405401 432.41691558811124Q812.8843642505418 432.41691558811124 794.9033858861557 438.42048191803843L794.9033858861557 438.42048191803843L789.9697620704729 424.0654198519253Q810.9525235998226 416.3677778744443 828.9335019642086 416.3677778744443L828.9335019642086 416.3677778744443Q848.8166003539181 416.3677778744443 858.654127359888 426.1161430042272Q868.5213749912535 435.83478750861434 868.5213749912535 453.8157658730004L868.5213749912535 453.8157658730004L868.5213749912535 505.3810509345042ZM822.2760818755764 519.5280686228475Q839.187117725718 519.5280686228475 848.8166003539181 501.963179014001L848.8166003539181 501.963179014001L848.8166003539181 476.07651429436424L834.0454495322655 476.07651429436424Q802.8090722414064 476.07651429436424 802.8090722414064 499.19916085220285L802.8090722414064 499.19916085220285Q802.8090722414064 509.2447322359425 807.7426960570892 514.386400429395Q812.6465992473762 519.5280686228475 822.2760818755764 519.5280686228475L822.2760818755764 519.5280686228475ZM1086.343838516188 384.26950244711054L1098.559015553812 531.7135250350761L1078.8542409164766 531.7135250350761L1073.712572723024 465.16904477414994Q1070.5027451802907 425.99726050264445 1070.0866564247513 405.04421959869046L1070.0866564247513 405.04421959869046L1038.1964253751871 515.0105335627043L1019.1455044965568 515.0105335627043L985.5611977994391 404.806454595525Q985.5611977994391 431.5550174516365 982.7674590122452 466.6550760439339L982.7674590122452 466.6550760439339L977.8635558219581 531.7135250350761L958.6045905655578 531.7135250350761L970.7900469777863 384.26950244711054L998.1924635926028 384.26950244711054L1029.2207965056923 491.4717982493262L1058.7333775236016 384.26950244711054L1086.343838516188 384.26950244711054ZM1208.1092407622864 505.3810509345042Q1208.1092407622864 512.2465154009061 1210.4571701685452 515.5455048198265Q1212.8050995748038 518.8742148641426 1217.530679012717 520.598011137092L1217.530679012717 520.598011137092L1213.0428645779693 534.2694988191046Q1204.2455594608482 533.19955630486 1198.8958468896258 529.3655956288175Q1193.5461343184036 525.5019143273792 1190.9901605343753 517.3881835943587L1190.9901605343753 517.3881835943587Q1179.6368816332256 534.2694988191046 1157.4058538372574 534.2694988191046L1157.4058538372574 534.2694988191046Q1140.7028623648857 534.2694988191046 1131.0733797366854 524.8777811940698Q1121.4438971084853 515.4563429436395 1121.4438971084853 500.2691033664473L1121.4438971084853 500.2691033664473Q1121.4438971084853 482.2881250020613 1134.4020897810015 472.65864237386114Q1147.330561828122 463.029159745661 1171.0773415192698 463.029159745661L1171.0773415192698 463.029159745661L1188.4341867503467 463.029159745661L1188.4341867503467 454.67766400947505Q1188.4341867503467 442.7002519750163 1182.638664798189 437.55858378156375Q1176.8728634714275 432.41691558811124 1164.8954514369684 432.41691558811124L1164.8954514369684 432.41691558811124Q1152.4722300215744 432.41691558811124 1134.4912516571885 438.42048191803843L1134.4912516571885 438.42048191803843L1129.5873484669014 424.0654198519253Q1150.5403893708553 416.3677778744443 1168.5213677352413 416.3677778744443L1168.5213677352413 416.3677778744443Q1188.4341867503467 416.3677778744443 1198.2717137563166 426.1161430042272Q1208.1092407622864 435.83478750861434 1208.1092407622864 453.8157658730004L1208.1092407622864 453.8157658730004L1208.1092407622864 505.3810509345042ZM1161.893668272005 519.5280686228475Q1178.8047041221466 519.5280686228475 1188.4341867503467 501.963179014001L1188.4341867503467 501.963179014001L1188.4341867503467 476.07651429436424L1173.6630359286942 476.07651429436424Q1142.4266586378349 476.07651429436424 1142.4266586378349 499.19916085220285L1142.4266586378349 499.19916085220285Q1142.4266586378349 509.2447322359425 1147.330561828122 514.386400429395Q1152.264185643805 519.5280686228475 1161.893668272005 519.5280686228475L1161.893668272005 519.5280686228475ZM1301.610328257094 416.3677778744443Q1317.0353328374513 416.3677778744443 1325.6840348275941 425.5811717471049Q1334.3624574431324 434.7648449943699 1334.3624574431324 450.81398270803675L1334.3624574431324 450.81398270803675L1334.3624574431324 531.7135250350761L1314.6874034311927 531.7135250350761L1314.6874034311927 453.60772149523063Q1314.6874034311927 441.63030946077185 1310.1698683710497 436.696685645089Q1305.682053936302 431.79278245480197 1296.9144694445763 431.79278245480197L1296.9144694445763 431.79278245480197Q1287.9388405750815 431.79278245480197 1281.0733761086794 436.9047300228588Q1274.2376322676732 442.04639821631133 1268.234065937746 451.6758808445115L1268.234065937746 451.6758808445115L1268.234065937746 531.7135250350761L1248.559011925806 531.7135250350761L1248.559011925806 418.95347228386845L1265.4700477759475 418.95347228386845L1267.1641234235015 435.6267431308446Q1273.1676897534287 426.6511142613494 1282.0541567467367 421.5094460678969Q1290.9109031146493 416.3677778744443 1301.610328257094 416.3677778744443L1301.610328257094 416.3677778744443ZM1457.821935336785 418.95347228386845L1457.821935336785 531.7135250350761L1440.9406201120387 531.7135250350761L1439.424868216859 514.1783560516253Q1433.0052131313923 524.6400161909044 1424.6537173952065 529.4547575050044Q1416.3319422844165 534.2694988191046 1404.324809624562 534.2694988191046L1404.324809624562 534.2694988191046Q1389.5833794283049 534.2694988191046 1381.231883692119 525.2938699496094Q1372.8803879559332 516.3182410801141 1372.8803879559332 499.8232939855121L1372.8803879559332 499.8232939855121L1372.8803879559332 418.95347228386845L1392.5554419678729 418.95347228386845L1392.5554419678729 497.6834089570232Q1392.5554419678729 509.2447322359425 1396.627167647081 514.0594735500425Q1400.6988933262887 518.8742148641426 1409.9122871989493 518.8742148641426L1409.9122871989493 518.8742148641426Q1426.377513668156 518.8742148641426 1438.1468813248453 499.4072052299726L1438.1468813248453 499.4072052299726L1438.1468813248453 418.95347228386845L1457.821935336785 418.95347228386845ZM1621.315095638417 453.8157658730004Q1636.5023352156095 456.4014602824245 1645.9237734660396 464.515191015445Q1655.3452117164702 472.65864237386114 1655.3452117164702 489.77772260177244L1655.3452117164702 489.77772260177244Q1655.3452117164702 531.7135250350761 1596.9144621885644 531.7135250350761L1596.9144621885644 531.7135250350761L1556.256646647275 531.7135250350761L1556.256646647275 384.26950244711054L1591.1486608618025 384.26950244711054Q1619.1752106099284 384.26950244711054 1634.0652439331634 393.48289631977116Q1648.925556631003 402.6665695670361 1648.925556631003 421.5094460678969L1648.925556631003 421.5094460678969Q1648.925556631003 434.3487562388304 1640.90098777417 442.908296352786Q1632.8764189173367 451.4678364667417 1621.315095638417 453.8157658730004L1621.315095638417 453.8157658730004ZM1593.2885458902915 400.3186401607775L1576.5855544179194 400.3186401607775L1576.5855544179194 446.7719776542244L1598.8463028392835 446.7719776542244Q1611.685613010217 446.7719776542244 1619.9182262448203 440.5603669465274Q1628.180560104819 434.3487562388304 1628.180560104819 422.9954773376808L1628.180560104819 422.9954773376808Q1628.180560104819 410.1561671667473 1619.5021374892808 405.25226397646026Q1610.8237148737421 400.3186401607775 1593.2885458902915 400.3186401607775L1593.2885458902915 400.3186401607775ZM1596.9144621885644 515.4563429436395Q1614.8954405529503 515.4563429436395 1624.4357613049633 510.1066303724172Q1633.946361431581 504.7569178011949 1633.946361431581 489.77772260177244L1633.946361431581 489.77772260177244Q1633.946361431581 475.21461615788957 1624.7329675589203 468.7949610724228Q1615.549294311655 462.37530598695605 1600.7781434900025 462.37530598695605L1600.7781434900025 462.37530598695605L1576.5855544179194 462.37530598695605L1576.5855544179194 515.4563429436395L1596.9144621885644 515.4563429436395ZM1727.6852139295538 416.3677778744443Q1751.4319936207016 416.3677778744443 1764.5982306709875 432.20887121034144Q1777.734747095878 448.0499645462386 1777.734747095878 475.21461615788957L1777.734747095878 475.21461615788957Q1777.734747095878 492.77950576673607 1771.7609013913461 506.1537871947918Q1765.7573350614189 519.5280686228475 1754.433776785665 526.8987837209761Q1743.0804978845154 534.2694988191046 1727.447448926388 534.2694988191046L1727.447448926388 534.2694988191046Q1703.7006692352402 534.2694988191046 1690.4452703087672 518.4581261086031Q1677.1601507568985 502.61703277270595 1677.1601507568985 475.4226605356593L1677.1601507568985 475.4226605356593Q1677.1601507568985 457.8874915522085 1683.1637170868262 444.51321012415275Q1689.167283416753 431.13892869609697 1700.4908416925073 423.7682135979685Q1711.8441205936565 416.3677778744443 1727.6852139295538 416.3677778744443L1727.6852139295538 416.3677778744443ZM1727.6852139295538 432.20887121034144Q1698.3509566640182 432.20887121034144 1698.3509566640182 475.4226605356593L1698.3509566640182 475.4226605356593Q1698.3509566640182 518.4581261086031 1727.447448926388 518.4581261086031L1727.447448926388 518.4581261086031Q1756.573661814154 518.4581261086031 1756.573661814154 475.21461615788957L1756.573661814154 475.21461615788957Q1756.573661814154 432.20887121034144 1727.6852139295538 432.20887121034144L1727.6852139295538 432.20887121034144ZM1888.1765910662225 418.95347228386845L1853.4926212294645 471.38065548184693L1892.6644055009701 531.7135250350761L1868.9176258098223 531.7135250350761L1841.3071648172363 483.982200649615L1813.2806150691104 531.7135250350761L1791.0198666477463 531.7135250350761L1830.3996952970215 472.21283299292594L1795.5076810824944 418.95347228386845L1818.6303276403328 418.95347228386845L1842.1690629537106 460.2354209584671L1865.9158426448585 418.95347228386845L1888.1765910662225 418.95347228386845Z " fill="#ffffff" transform="matrix(0.46231121445559276,0,0,0.46231121445559276,0,87.67455151953573)"/></g></svg>