<svg xmlns="http://www.w3.org/2000/svg" viewBox="0 0 1000 600"><path fill="#184c78" d="M0 0h1000v600H0z"/><path fill="#cc8d1a" d="M125 222.948h154.104v154.104H125z"/><path fill="#184c78" d="m229.233 265.327 5.73 69.346h-9.253l-2.418-31.297q-1.51-18.424-1.705-28.278l-15 51.72h-8.96l-15.795-51.832q0 12.58-1.314 29.089l-2.32 30.598h-9.058l5.745-69.346h12.874l14.593 50.42 13.895-50.42h12.986Z"/><path fill="#fff" d="M317.63 265.327h9.398v59.948h28.002l-1.099 8.217H317.63v-68.165Zm83.897 55.99q0 3.175 1.086 4.7 1.085 1.539 3.256 2.336l-2.075 6.32q-4.053-.494-6.526-2.267-2.474-1.786-3.655-5.537-5.249 7.804-15.54 7.804-7.709 0-12.16-4.342-4.452-4.355-4.452-11.376 0-8.313 5.977-12.765 5.99-4.452 16.969-4.452h8.01v-3.86q0-5.538-2.665-7.915-2.68-2.377-8.217-2.377-5.73 0-14.042 2.775l-2.281-6.636q9.7-3.559 18.013-3.559 9.192 0 13.74 4.507 4.562 4.493 4.562 12.806v23.839Zm-21.38 6.541q7.819 0 12.27-8.12V307.77h-6.828q-14.441 0-14.441 10.69 0 4.644 2.28 7.021 2.268 2.377 6.72 2.377Zm122.082-62.531 5.647 68.165h-9.11l-2.377-30.765q-1.484-18.11-1.676-27.796L479.97 325.77h-8.808l-15.526-50.949q0 12.366-1.292 28.593l-2.267 30.078h-8.903l5.633-68.165h12.669l14.344 49.56 13.644-49.56h12.765Zm56.293 55.99q0 3.175 1.086 4.7 1.085 1.539 3.27 2.336l-2.075 6.32q-4.067-.494-6.54-2.267-2.473-1.786-3.655-5.537-5.249 7.804-15.526 7.804-7.722 0-12.174-4.342-4.452-4.355-4.452-11.376 0-8.313 5.99-12.765 5.978-4.452 16.956-4.452h8.024v-3.86q0-5.538-2.679-7.915-2.665-2.377-8.203-2.377-5.743 0-14.056 2.775l-2.267-6.636q9.687-3.559 18-3.559 9.205 0 13.753 4.507 4.548 4.493 4.548 12.806v23.839Zm-21.366 6.541q7.819 0 12.27-8.12V307.77h-6.828q-14.441 0-14.441 10.69 0 4.644 2.267 7.021 2.28 2.377 6.732 2.377Zm64.593-47.692q7.131 0 11.13 4.26 4.012 4.245 4.012 11.665v37.4h-9.096v-36.109q0-5.537-2.089-7.818-2.075-2.267-6.128-2.267-4.15 0-7.323 2.364-3.16 2.377-5.936 6.828v37.003h-9.096v-52.13h7.818l.783 7.708q2.776-4.15 6.884-6.527 4.095-2.377 9.041-2.377Zm72.218 1.195v52.13h-7.804l-.7-8.106q-2.969 4.837-6.83 7.062-3.847 2.226-9.398 2.226-6.815 0-10.676-4.15-3.861-4.149-3.861-11.775v-37.387h9.096v36.398q0 5.345 1.882 7.571 1.883 2.226 6.142 2.226 7.612 0 13.053-9v-37.195h9.096Zm75.585 16.118q7.021 1.195 11.377 4.946 4.356 3.765 4.356 11.68 0 19.387-27.014 19.387h-18.796v-68.165h16.13q12.958 0 19.842 4.26 6.87 4.245 6.87 12.956 0 5.936-3.71 9.893-3.71 3.957-9.055 5.043Zm-12.957-24.733h-7.722v21.476h10.292q5.935 0 9.741-2.871 3.82-2.872 3.82-8.12 0-5.937-4.012-8.204-4.012-2.28-12.119-2.28Zm1.676 53.23q8.313 0 12.724-2.473 4.397-2.474 4.397-9.399 0-6.732-4.26-9.7-4.245-2.968-11.074-2.968h-11.185v24.54h9.398Zm60.457-45.81q10.979 0 17.066 7.324 6.073 7.323 6.073 19.882 0 8.12-2.762 14.303-2.776 6.183-8.01 9.59-5.25 3.408-12.477 3.408-10.978 0-17.106-7.31-6.142-7.323-6.142-19.895 0-8.107 2.775-14.29 2.776-6.183 8.011-9.59 5.249-3.422 12.572-3.422Zm0 7.324q-13.561 0-13.561 19.978 0 19.896 13.451 19.896 13.466 0 13.466-19.992 0-19.882-13.356-19.882Zm74.197-6.129L856.89 305.6 875 333.492h-10.978l-12.765-22.067-12.957 22.067h-10.291l18.205-27.508-16.13-24.623h10.69l10.881 19.086 10.979-19.086h10.291Z"/></svg>